<?xml version="1.0" encoding="utf-8"?>
<!-- Generator: Adobe Illustrator 22.1.0, SVG Export Plug-In . SVG Version: 6.00 Build 0)  -->
<svg version="1.1" id="Layer_1" xmlns="http://www.w3.org/2000/svg" xmlns:xlink="http://www.w3.org/1999/xlink" x="0px" y="0px"
	 viewBox="0 0 50 50" style="enable-background:new 0 0 50 50;" xml:space="preserve">
<style type="text/css">
	.st0{fill:#383E56;}
</style>
<g>
	<path class="st0" d="M5.2,36.3V8.4h3.7V14h14.8V8.4h3.7v9.5c1.3,0.2,2.6,0.6,3.7,1.1V8.4c0-2-1.7-3.7-3.7-3.7h-5.9
		C20.8,2.5,18.8,1,16.3,1s-4.5,1.5-5.2,3.7H5.2c-2,0-3.7,1.7-3.7,3.7v27.8c0,2,1.7,3.7,3.7,3.7h11.3c-1.1-1.1-2-2.2-2.6-3.7H5.2z
		 M16.3,4.7c1.1,0,1.9,0.7,1.9,1.9c0,1.1-0.7,1.9-1.9,1.9c-0.9,0-1.9-0.7-1.9-1.9C14.5,5.5,15.4,4.7,16.3,4.7z"/>
	<path class="st0" d="M43.6,31.4c-0.7,0-1.4,0.2-2.1,0.4c0.5-1.1,0.8-2.2,0.8-3.4c0-4.1-3-7.1-6.9-7.2c-0.7,0.2-0.7,0.2-0.9,0.2
		c-2.2,0-4.5,0.9-6.1,2.6c-1.7-1.7-3.9-2.6-6.1-2.6c-4.1-0.2-7.2,3-7.4,6.9c0,0,0,0,0,0.2c0,4.8,4.6,8.7,11.7,14.8l2,1.7l2-1.7
		c0.5-0.4,1-0.9,1.5-1.3c1.4,1.5,3.3,3.2,5.5,5.2l1.5,1.3l1.5-1.3c5-4.3,8.3-7.2,8.3-10.8C49,33.7,46.6,31.4,43.6,31.4z M39,28.5
		c0.1,1.3-0.3,2.5-1.2,3.9c-0.9-0.6-2-0.9-3.1-0.9c-3,0-5.4,2.2-5.4,5c0,1.2,0.4,2.3,1.1,3.4c-0.6,0.5-1.2,1.1-1.8,1.6h-0.4
		c-6.5-5.6-10.8-9.1-10.8-13c0-2.4,2-4.5,4.5-4.5h0.2c2,0,4.1,1.1,4.8,3h2.6c0.9-1.9,2.8-3,4.8-3c2.4,0,4.6,1.9,4.6,4.3V28.5z"/>
</g>
</svg>
