<?xml version="1.0" encoding="utf-8"?>
<!-- Generator: Adobe Illustrator 22.1.0, SVG Export Plug-In . SVG Version: 6.00 Build 0)  -->
<svg version="1.1" id="Layer_1" xmlns="http://www.w3.org/2000/svg" xmlns:xlink="http://www.w3.org/1999/xlink" x="0px" y="0px"
	 viewBox="0 0 50 50" style="enable-background:new 0 0 50 50;" xml:space="preserve">
<style type="text/css">
	.st0{fill:#383E56;}
	.st1{fill:none;stroke:#383E56;stroke-width:0.5;stroke-linecap:round;stroke-linejoin:round;}
	.st2{fill:none;stroke:#383E56;stroke-width:0.5;stroke-linecap:round;stroke-linejoin:round;stroke-dasharray:1.9596,1.9596;}
</style>
<g>
	<g>
		<path class="st0" d="M18.3,12.5h-4.1C13.7,11,12.3,10,10.6,10c-1.7,0-3,1-3.6,2.5H3c-1.4,0-2.5,1.1-2.5,2.5v19
			c0,1.4,1.1,2.5,2.5,2.5h7.7C10,35.9,9.4,35.1,9,34.1H3v-19h2.5v3.8h10.2v-3.8h2.5v6.5c0.9,0.1,1.8,0.4,2.5,0.8v-7.2
			C20.8,13.7,19.7,12.5,18.3,12.5z M10.6,15.1c-0.6,0-1.3-0.5-1.3-1.3c0-0.8,0.6-1.3,1.3-1.3c0.8,0,1.3,0.5,1.3,1.3
			C11.9,14.6,11.4,15.1,10.6,15.1z"/>
		<path class="st0" d="M46,19.8c-0.2-2.6-2.5-4.5-5.3-4.5c-2,0-3,0.6-4.2,1.8c-1.1-1.1-2.7-1.8-4.2-1.8c-2.8-0.1-5,2-5.1,4.7
			c0,0,0,0,0,0.1c0,3.3,3.2,6,8,10.2l1.4,1.1l1.4-1.1c0.6-0.5,1.1-0.9,1.6-1.4c0.6,0.5,1.2,1,1.8,1.6l1,0.9l1-0.9
			c3.4-2.9,5.7-5,5.7-7.4C49.2,21.5,47.8,20,46,19.8z M36.7,29h-0.3C32,25.2,29,22.8,29,20.2c0-1.7,1.4-3,3-3h0.1
			c1.4,0,2.8,0.8,3.3,2h1.8c0.6-1.3,1.9-2,3.3-2c1.7,0,3.2,1.3,3.2,2.9v0.1c0,0,0,0,0,0c-0.5,0.2-0.9,0.6-1.3,1
			c-0.8-0.9-1.9-1.4-3-1.4c-2,0-3.7,1.5-3.7,3.4c0,1.5,0.9,2.9,2.5,4.4C37.8,28.1,37.2,28.5,36.7,29z"/>
	</g>
	<g>
		<g>
			<path class="st1" d="M33.5,27.1"/>
		</g>
	</g>
	<path class="st2" d="M9.4,24c0,0,1.8,7.7,8,10.4c3.8,1.7,8.6,1.4,13.2-2.5c2.4-2,2.5-2.5,2.5-2.5"/>
</g>
</svg>
